<svg width="512" height="512" viewBox="0 0 512 512" fill="none" xmlns="http://www.w3.org/2000/svg">
<path d="M151.371 315V242.4L179.371 270.4V315H151.371ZM264.171 182H270.171V315H242.171V243.6L227.371 258.6L221.571 264.2L219.971 265.8L214.971 271L211.171 274.6L192.371 255.8L179.371 242.8L151.371 214.8V182H158.171L184.971 208.8L211.171 235L264.171 182Z" fill="black"/>
<path d="M492.012 246.814L501.434 257L492.012 267.186L381.012 387.186L376.559 392H134.441L129.988 387.186L60.5254 312.09L81.041 290.089L82.1738 291.314L147.559 362H363.441L455.767 262.188L481.102 235.02L492.012 246.814ZM381.012 126.814L450.461 201.895L429.944 223.896L363.441 152H147.559L58.2871 248.507L29.8848 278.965L18.9883 267.186L9.56641 257L18.9883 246.814L129.988 126.814L134.441 122H376.559L381.012 126.814Z" fill="black"/>
<path d="M340.011 182V301.542M307 266.53L340.011 301.542L373.023 266.53" stroke="black" stroke-width="22.0076"/>
</svg>
